<svg xmlns="http://www.w3.org/2000/svg" xmlns:xlink="http://www.w3.org/1999/xlink" version="1.1" id="Layer_1" x="0px" y="0px" style="enable-background:new 0 0 566.93 566.93;" xml:space="preserve" viewBox="242.19 192.35 97.21 117.78">
<style type="text/css">
	.st0{fill:#010101;}
	.st1{fill:#FFFFFF;}
	.st2{fill:#944F96;}
	.st3{fill:#DCDCDC;}
	.st4{fill:#C84E9C;}
	.st5{fill:#F6CEB4;}
	.st6{fill:#987792;}
	.st7{fill:#EE8829;}
</style>
<g>
	<path class="st0" d="M290.74,310.13c-15.49,0-30.98,0-46.47,0c-1.92,0-2.29-0.41-1.99-2.34c1.92-12.65,6.09-24.43,13.62-34.87   c5.22-7.24,11.61-13.17,19.9-16.71c12.85-5.49,25.11-3.96,36.65,3.7c7.67,5.1,13.29,12.09,17.69,20.1   c4.88,8.87,7.78,18.39,9.23,28.38c0.17,1.16-0.4,1.74-1.7,1.74c-7.35,0-14.7,0-22.06,0C307.32,310.13,299.03,310.13,290.74,310.13z   "/>
	<path class="st0" d="M263.04,220.02c0.02-15.34,12.45-27.7,27.83-27.67c15.26,0.03,27.62,12.42,27.63,27.68   c0.01,15.32-12.46,27.77-27.78,27.74C275.42,247.74,263.02,235.3,263.04,220.02z"/>
	<path class="st1" d="M292.51,306.84c-0.23-0.89-0.72-1.49-1.71-1.52c-0.87-0.03-1.49,0.49-1.83,1.48c-0.46,0.43-1.04,0.3-1.56,0.25   c-1.06-0.12-2.11-0.08-3.17-0.1c-8.07-0.19-16.11-0.78-24-2.6c-3.31-0.76-6.52-1.81-9.5-3.49c-1.04-0.58-1.95-1.32-2.82-2.12   c-0.42-0.38-0.68-0.84-0.58-1.43c1.19-4.58,2.9-8.96,4.99-13.19c3.6-7.29,8.26-13.78,14.49-19.07c0.14-0.12,0.27-0.23,0.51-0.42   c-0.32,1.49-0.66,2.84-0.9,4.22c-1.19,7.03-0.62,13.98,1,20.88c0.19,0.81,0.18,1.35-0.52,2.01c-1.63,1.54-1.77,4.06-0.53,5.91   c1.22,1.83,3.54,2.6,5.6,1.86c2.07-0.75,3.35-2.78,3.15-4.98c-0.2-2.21-1.89-3.96-4.16-4.25c-0.46-0.06-0.66-0.2-0.77-0.67   c-1.63-6.77-2.22-13.6-1.04-20.51c0.07-0.42,0.05-1.04,0.72-0.39c0.14,1.38,0.14,1.38,1.61,1.8c0.38,0.11,0.76,0.2,1.13,0.34   c0.9,0.34,1.15,0.78,0.81,1.68c-0.55,1.48-0.92,3.01-1.46,4.48c-0.24,0.65-0.1,1.06,0.49,1.44c3.79,2.48,7.56,5,11.38,7.43   c0.8,0.5,1.48,1.14,2.24,1.68c1.12,1.26,2.24,2.52,3.36,3.79c0.97,1.11,1.71,1.11,2.68,0c1.11-1.27,2.24-2.53,3.36-3.79   c4.34-3.28,9.07-5.99,13.54-9.07c0.65-0.44,0.81-0.84,0.54-1.56c-0.54-1.44-0.9-2.95-1.43-4.39c-0.34-0.91-0.1-1.35,0.81-1.68   c0.59-0.22,1.21-0.38,1.82-0.55c0.66-0.19,1.13-0.45,0.84-1.25c-0.04-0.11,0.01-0.24,0.08-0.34c0.34-0.3,0.59-0.51,0.71,0.2   c0.54,3.11,0.74,6.24,0.59,9.4c-0.01,0.29-0.05,0.48-0.38,0.61c-3.98,1.55-6.01,4.78-7.31,8.6c-0.38,1.12-1.01,2.26-0.02,3.42   c0.11,0.13-0.01,0.46-0.04,0.7c-0.19,1.45-0.22,2.9,0.26,4.3c0.7,2.04,2.51,3.36,4.66,3.45c0.63,0.03,1.09-0.19,1.16-0.86   c0.06-0.61-0.29-0.91-0.89-1.05c-2.9-0.64-4.6-3.49-3.11-6c1.08-1.82,1.36-3.9,2.54-5.63c0.81-1.19,1.63-2.33,2.87-3.1   c1.15-0.72,1.43-0.68,2.37,0.34c1.3,1.41,1.89,3.14,2.19,4.99c0.13,0.8,0.2,1.62,0.21,2.44c0.02,0.83-0.01,1.64,0.75,2.21   c0.08,0.06,0.13,0.2,0.15,0.31c0.5,2.46-1.4,4.83-3.89,4.81c-0.7,0-1.24,0.16-1.24,0.95c0,0.74,0.52,0.93,1.17,0.95   c3.15,0.12,5.28-1.78,5.75-5.18c0.13-0.91,0.17-1.78,0.67-2.65c0.53-0.93,0.16-2.08,0.07-3.13c-0.28-3.01-1.14-5.8-3.24-8.1   c-0.14-0.16-0.27-0.36-0.44-0.45c-1.58-0.77-1.57-2.1-1.53-3.62c0.12-4.01-0.39-7.96-1.59-12.04c1.48,1.16,2.69,2.29,3.86,3.48   c7.39,7.54,12.22,16.58,15.45,26.54c0.29,0.89,0.51,1.8,0.77,2.7c0.11,0.68-0.26,1.13-0.72,1.56c-1.74,1.66-3.84,2.72-6.05,3.59   c-4.68,1.84-9.58,2.72-14.54,3.38c-3.81,0.5-7.63,0.73-11.46,0.98c-2.48,0.16-4.96-0.02-7.43,0.25   C293.5,307.12,292.96,307.18,292.51,306.84z"/>
	<path class="st2" d="M285.84,269.05c-1.15-3.88-2.29-7.76-3.46-11.64c-0.14-0.46-0.04-0.63,0.43-0.74c5.3-1.26,10.6-1.26,15.9,0   c0.47,0.11,0.57,0.28,0.43,0.74c-1.17,3.87-2.31,7.76-3.46,11.63C292.41,269.5,289.12,269.5,285.84,269.05z"/>
	<path class="st1" d="M293.98,284.72c0.76-2.6,1.52-5.21,2.28-7.81c1.8-6.14,3.62-12.28,5.39-18.42c0.21-0.74,0.46-0.84,1.17-0.55   c1.64,0.69,3.27,1.41,4.84,2.24c0.38,0.2,0.58,0.47,0.67,0.89c0.3,1.42,0.6,2.84,0.93,4.25c0.13,0.55,0.02,0.74-0.58,0.73   c-1.72-0.04-3.45-0.02-5.17-0.01c-1.61,0.01-2.14,0.8-1.52,2.27c0.62,1.47,1.24,2.95,1.9,4.4c0.18,0.39,0.14,0.64-0.14,0.96   c-3.21,3.69-6.41,7.4-9.61,11.1C294.09,284.76,294.03,284.74,293.98,284.72z"/>
	<path class="st1" d="M287.42,284.81c-1.77-2.05-3.55-4.1-5.32-6.14c-1.4-1.62-2.8-3.26-4.22-4.87c-0.34-0.39-0.44-0.7-0.2-1.19   c0.67-1.45,1.29-2.93,1.92-4.4c0.55-1.3,0-2.15-1.41-2.16c-1.75-0.02-3.51-0.02-5.26,0.01c-0.59,0.01-0.81-0.1-0.65-0.75   c0.35-1.41,0.64-2.83,0.93-4.25c0.09-0.42,0.31-0.68,0.68-0.88c1.6-0.85,3.25-1.59,4.93-2.27c0.66-0.27,0.86-0.13,1.04,0.52   c2.28,7.86,4.59,15.7,6.89,23.55c0.27,0.92,0.53,1.84,0.8,2.77C287.5,284.77,287.46,284.79,287.42,284.81z"/>
	<path class="st3" d="M247.33,297.31c0.74,1.6,2.17,2.46,3.61,3.28c3.77,2.15,7.91,3.22,12.13,4.03c3.78,0.72,7.6,1.2,11.44,1.49   c3.7,0.27,7.4,0.53,11.11,0.53c1.11,0,2.23,0.11,3.34,0.17c0.11,0.39,0.08,0.66-0.43,0.6c-0.12-0.01-0.24,0-0.36,0   c-14.02,0-28.04-0.01-42.07,0.02c-0.89,0-1.04-0.25-0.88-1.05C245.83,303.33,246.37,300.28,247.33,297.31z"/>
	<path class="st3" d="M292.51,306.84c1.77-0.11,3.55-0.2,5.33-0.24c4.36-0.11,8.71-0.36,13.05-0.87c4.94-0.58,9.84-1.33,14.57-2.91   c2.88-0.96,5.63-2.15,7.9-4.25c0.38-0.36,0.68-0.76,0.83-1.26c0.99,3.11,1.6,6.31,2.16,9.53c0.07,0.43-0.01,0.64-0.49,0.57   c-0.18-0.02-0.36,0-0.54,0c-13.98,0-27.95,0-41.92-0.01C293.02,307.4,292.4,307.67,292.51,306.84z"/>
	<path class="st4" d="M285.84,269.05c0.07-0.38,0.3-0.33,0.61-0.28c2.88,0.4,5.76,0.4,8.64,0c0.3-0.04,0.54-0.1,0.61,0.28   c-1.61,5.52-3.21,11.05-4.82,16.57c-0.07,0.01-0.14,0.02-0.21,0.02C289.06,280.12,287.45,274.59,285.84,269.05z"/>
	<path class="st3" d="M286.07,287.55c-1.16-0.33-2-1.2-2.99-1.81c-2.86-1.79-5.66-3.68-8.48-5.53c-0.9-0.59-1.8-1.21-2.71-1.79   c-0.4-0.26-0.55-0.53-0.37-1.03c0.58-1.65,1.09-3.32,1.67-4.97c0.23-0.67,0.18-1.09-0.59-1.29c-0.79-0.2-1.55-0.5-2.34-0.7   c-0.72-0.18-1.09-0.47-0.59-1.22c0.1-0.15,0.14-0.33,0.2-0.5c1.9,0.02,3.8,0.07,5.71,0.05c0.67,0,0.78,0.15,0.48,0.75   c-0.47,0.98-0.83,2.01-1.31,2.98c-0.44,0.88-0.31,1.55,0.34,2.29c3.54,4.05,7.04,8.13,10.55,12.2   C285.8,287.15,285.93,287.35,286.07,287.55z"/>
	<path class="st3" d="M311.65,268.7c0.56,1.39,0.56,1.39-0.83,1.84c-0.63,0.2-1.26,0.42-1.9,0.58c-0.7,0.17-0.84,0.56-0.62,1.21   c0.58,1.68,1.12,3.38,1.69,5.07c0.13,0.39,0.21,0.67-0.26,0.98c-3.35,2.15-6.67,4.35-9.99,6.53c-1.13,0.74-2.26,1.5-3.38,2.26   c-0.28,0.19-0.54,0.39-0.9,0.39c2.13-2.5,4.26-5.01,6.4-7.51c1.53-1.79,3.06-3.58,4.63-5.34c0.6-0.68,0.72-1.32,0.32-2.14   c-0.5-1.03-0.89-2.11-1.38-3.15c-0.25-0.53-0.15-0.66,0.43-0.66C307.79,268.75,309.72,268.72,311.65,268.7z"/>
	<path class="st5" d="M312.61,208.05c1.31,2.14,2.06,4.48,2.62,6.9c0.09,0.38-0.08,0.63-0.28,0.91c-1.73,2.43-3.79,4.54-6.14,6.38   c-0.37,0.29-0.59,0.23-0.92-0.02c-0.88-0.65-1.89-0.91-2.98-0.91c-9.43,0-18.86,0-28.29,0c-1.09,0-2.11,0.24-2.98,0.91   c-0.4,0.31-0.64,0.25-0.99-0.04c-2.29-1.81-4.31-3.88-6.02-6.24c-0.29-0.4-0.39-0.75-0.27-1.25c0.56-2.33,1.3-4.58,2.56-6.64   c1.13-1.21,2.62-1.94,3.93-2.89c1.84-1.33,3.76-2.54,5.63-3.82c0.69-0.47,1.43-0.57,2.25-0.42c3.48,0.64,7,1.01,10.54,0.96   c3.17-0.04,6.33-0.34,9.45-0.94c0.92-0.18,1.72-0.02,2.49,0.5c2.75,1.86,5.49,3.74,8.26,5.59   C311.89,207.32,312.23,207.71,312.61,208.05z"/>
	<path class="st6" d="M274.41,225.62c0.45-1.19,1.08-1.59,2.52-1.59c6.11,0,12.22,0,18.33,0c3.18,0,6.35-0.01,9.53,0   c1.27,0,1.91,0.45,2.34,1.59c0.18,1.57,0.05,3.14,0.07,4.71c0.02,1.48,0,2.97,0.01,4.45c0,0.44-0.04,0.86-0.41,1.14   c-0.93,0.72-1.85,1.47-2.95,1.94c-0.33,0.14-0.73,0.41-1.04-0.08c-0.19-1.54-0.46-1.81-2.09-1.81c-6.63-0.02-13.25-0.01-19.88-0.01   c-0.03,0-0.07,0-0.09,0c-1.55,0.04-1.84,0.3-2.01,1.8c-0.25,0.47-0.62,0.27-0.94,0.14c-1.16-0.48-2.12-1.26-3.09-2.02   c-0.22-0.17-0.37-0.41-0.37-0.7C274.37,232,274.24,228.81,274.41,225.62z"/>
	<path class="st7" d="M312.61,208.05c-1.81-0.92-3.38-2.19-5.07-3.3c-1.59-1.05-3.16-2.13-4.72-3.21c-0.53-0.37-1.08-0.5-1.71-0.37   c-3.89,0.8-7.83,1.12-11.79,1c-2.95-0.09-5.9-0.34-8.8-0.98c-0.78-0.17-1.39,0.07-2.02,0.51c-3.04,2.09-6.1,4.14-9.16,6.2   c-0.12,0.08-0.28,0.1-0.42,0.15c1.96-3.76,4.81-6.72,8.35-9c11.96-7.7,27.91-3.86,35.08,8.43   C312.45,207.66,312.52,207.86,312.61,208.05z"/>
	<path class="st2" d="M274.41,225.62c0,2.98,0.01,5.96,0,8.94c0,0.45,0.06,0.81,0.47,1.09c1.06,0.73,2.06,1.57,3.25,2.1   c0.15,0.07,0.3,0.23,0.49,0.06c8.1,0.3,16.21,0.3,24.31,0c0.74,0.03,1.26-0.45,1.82-0.81c2.38-1.54,2.37-1.55,2.38-4.33   c0-2.35,0-4.7,0.01-7.04c0.24,0.32,0.16,0.7,0.16,1.05c0,3.81-0.02,7.62-0.01,11.44c0,0.5-0.16,0.82-0.54,1.15   c-9.07,7.67-22.84,7.67-31.93-0.01c-0.31-0.26-0.55-0.49-0.55-0.96c0.01-3.99,0-7.99-0.01-11.98   C274.25,226.07,274.24,225.83,274.41,225.62z"/>
	<path class="st5" d="M266.27,224.72c-0.45-1.68-0.44-3.39-0.51-5.11c0.39-0.05,0.46,0.25,0.6,0.41c1.39,1.57,2.89,3.02,4.56,4.27   c0.56,0.42,0.74,0.79,0.68,1.55c-0.14,1.77-0.05,3.56-0.06,5.35c0,0.45-0.02,0.91-0.03,1.36c-0.57,0.12-0.79-0.35-1.07-0.68   C268.67,229.71,267.11,227.42,266.27,224.72z"/>
	<path class="st5" d="M310.02,232.54c-0.01-2.06,0.11-4.12-0.09-6.16c-0.12-1.24,0.32-1.88,1.23-2.55c1.66-1.22,3.06-2.72,4.57-4.45   c0.01,1.94-0.05,3.66-0.48,5.35c-0.84,2.7-2.4,4.99-4.17,7.14C310.81,232.19,310.59,232.65,310.02,232.54z"/>
	<path class="st4" d="M310.02,232.54c1.73-1.56,2.87-3.54,4.03-5.52c0.44-0.75,0.65-1.62,1.21-2.3c-0.7,4.14-2.49,7.78-5.24,11.23   C310.02,234.67,310.02,233.6,310.02,232.54z"/>
	<path class="st4" d="M266.27,224.72c0.63,1.16,1.22,2.34,1.9,3.47c0.95,1.57,1.93,3.13,3.34,4.35c0,1.05,0,2.1,0,3.41   C268.77,232.51,266.97,228.88,266.27,224.72z"/>
	<path class="st0" d="M292.51,299.42c-0.02,0.94-0.82,1.72-1.75,1.72c-0.97,0-1.79-0.86-1.74-1.82c0.04-0.95,0.83-1.68,1.8-1.66   C291.77,297.69,292.53,298.48,292.51,299.42z"/>
	<path class="st0" d="M290.86,228.26c3.39,0,6.78,0,10.17,0c0.33,0,0.67-0.01,0.99,0.06c0.71,0.16,1.11,0.62,1.08,1.36   c-0.03,0.73-0.44,1.18-1.17,1.29c-0.33,0.05-0.66,0.03-1,0.03c-6.87,0-13.74,0-20.61,0c-0.24,0-0.49,0.02-0.72-0.03   c-0.71-0.13-1.14-0.56-1.16-1.3c-0.03-0.74,0.37-1.2,1.08-1.36c0.32-0.07,0.66-0.06,0.99-0.06   C283.96,228.26,287.41,228.26,290.86,228.26z"/>
	<path class="st0" d="M302.92,237.81c-0.41,0.47-0.93,0.59-1.54,0.59c-7.08-0.01-14.16-0.01-21.23,0c-0.61,0-1.13-0.12-1.54-0.59   c-0.42-1.32,0.08-2.12,1.44-2.12c7.14-0.02,14.28-0.02,21.43,0C302.84,235.69,303.34,236.49,302.92,237.81z"/>
	<path class="st6" d="M301.61,238.57c-7.23,3.26-14.46,3.26-21.7,0C287.15,238.57,294.38,238.57,301.61,238.57z"/>
</g>
</svg>