<svg xmlns="http://www.w3.org/2000/svg" xmlns:xlink="http://www.w3.org/1999/xlink" version="1.1" id="Layer_1" x="0px" y="0px" style="enable-background:new 0 0 566.93 566.93;" xml:space="preserve" viewBox="188.62 225.54 143.02 127.29">
<style type="text/css">
	.st0{fill:none;}
	.st1{fill:#944F96;}
	.st2{font-family:'equil-Regular';}
	.st3{font-size:54px;}
	.st4{fill:#010101;}
	.st5{fill:#FFFFFF;}
	.st6{fill:#DCDCDC;}
	.st7{fill:#C84E9C;}
	.st8{fill:#F6CEB4;}
	.st9{fill:#987792;}
	.st10{fill:#EE8829;}
</style>
<rect x="188.62" y="300.98" class="st0" width="189.7" height="58.32"/>
<text transform="matrix(1 0 0 1 188.6168 338.8329)" class="st1 st2 st3">DAVE</text>
<g>
	<path class="st4" d="M262.86,290.58c-8.55,0-17.11,0-25.66,0c-1.06,0-1.26-0.22-1.1-1.29c1.06-6.98,3.36-13.49,7.52-19.26   c2.88-4,6.41-7.27,10.99-9.23c7.1-3.03,13.87-2.19,20.24,2.05c4.24,2.82,7.34,6.68,9.77,11.1c2.69,4.9,4.3,10.15,5.1,15.67   c0.09,0.64-0.22,0.96-0.94,0.96c-4.06,0-8.12,0-12.18,0C272.01,290.58,267.44,290.58,262.86,290.58z"/>
	<path class="st4" d="M247.56,240.82c0.01-8.47,6.87-15.29,15.37-15.28c8.42,0.01,15.25,6.86,15.26,15.29   c0,8.46-6.88,15.34-15.34,15.32C254.4,256.13,247.55,249.27,247.56,240.82z"/>
	<path class="st5" d="M263.84,288.77c-0.13-0.49-0.4-0.82-0.94-0.84c-0.48-0.01-0.82,0.27-1.01,0.82c-0.26,0.24-0.58,0.17-0.86,0.14   c-0.58-0.07-1.17-0.04-1.75-0.06c-4.46-0.11-8.89-0.43-13.25-1.44c-1.83-0.42-3.6-1-5.24-1.92c-0.57-0.32-1.08-0.73-1.56-1.17   c-0.23-0.21-0.37-0.46-0.32-0.79c0.66-2.53,1.6-4.95,2.76-7.28c1.99-4.02,4.56-7.61,8-10.53c0.08-0.06,0.15-0.13,0.28-0.23   c-0.18,0.82-0.37,1.57-0.5,2.33c-0.66,3.88-0.34,7.72,0.55,11.53c0.11,0.45,0.1,0.74-0.29,1.11c-0.9,0.85-0.98,2.24-0.29,3.26   c0.68,1.01,1.96,1.44,3.09,1.02c1.14-0.41,1.85-1.53,1.74-2.75c-0.11-1.22-1.04-2.18-2.29-2.35c-0.26-0.03-0.36-0.11-0.43-0.37   c-0.9-3.74-1.23-7.51-0.58-11.33c0.04-0.23,0.03-0.57,0.4-0.22c0.08,0.76,0.08,0.76,0.89,0.99c0.21,0.06,0.42,0.11,0.62,0.19   c0.5,0.19,0.63,0.43,0.45,0.93c-0.3,0.81-0.51,1.66-0.81,2.47c-0.13,0.36-0.05,0.59,0.27,0.8c2.09,1.37,4.17,2.76,6.29,4.1   c0.44,0.28,0.81,0.63,1.24,0.93c0.62,0.7,1.24,1.39,1.85,2.09c0.54,0.61,0.94,0.61,1.48,0c0.62-0.7,1.24-1.4,1.85-2.09   c2.4-1.81,5.01-3.31,7.48-5.01c0.36-0.25,0.45-0.46,0.3-0.86c-0.3-0.8-0.5-1.63-0.79-2.43c-0.19-0.5-0.05-0.74,0.45-0.93   c0.33-0.12,0.67-0.21,1.01-0.3c0.36-0.1,0.62-0.25,0.46-0.69c-0.02-0.06,0.01-0.13,0.04-0.19c0.19-0.17,0.32-0.28,0.39,0.11   c0.3,1.72,0.41,3.45,0.32,5.19c-0.01,0.16-0.03,0.26-0.21,0.34c-2.19,0.86-3.32,2.64-4.03,4.75c-0.21,0.62-0.56,1.25-0.01,1.89   c0.06,0.07,0,0.26-0.02,0.39c-0.11,0.8-0.12,1.6,0.15,2.38c0.38,1.12,1.38,1.86,2.57,1.9c0.35,0.01,0.6-0.11,0.64-0.47   c0.03-0.34-0.16-0.51-0.49-0.58c-1.6-0.35-2.54-1.93-1.72-3.31c0.6-1,0.75-2.15,1.4-3.11c0.45-0.65,0.9-1.29,1.58-1.71   c0.64-0.4,0.79-0.38,1.31,0.19c0.72,0.78,1.04,1.74,1.21,2.76c0.07,0.44,0.11,0.9,0.12,1.35c0.01,0.46,0,0.91,0.42,1.22   c0.05,0.03,0.07,0.11,0.08,0.17c0.28,1.36-0.77,2.67-2.15,2.66c-0.39,0-0.68,0.09-0.68,0.53c0,0.41,0.28,0.51,0.65,0.53   c1.74,0.07,2.92-0.99,3.17-2.86c0.07-0.5,0.1-0.98,0.37-1.46c0.29-0.51,0.09-1.15,0.04-1.73c-0.15-1.66-0.63-3.21-1.79-4.47   c-0.08-0.09-0.15-0.2-0.25-0.25c-0.87-0.42-0.87-1.16-0.84-2c0.07-2.21-0.21-4.39-0.88-6.65c0.82,0.64,1.49,1.27,2.13,1.92   c4.08,4.17,6.75,9.16,8.53,14.66c0.16,0.49,0.28,0.99,0.42,1.49c0.06,0.38-0.14,0.62-0.4,0.86c-0.96,0.92-2.12,1.5-3.34,1.98   c-2.58,1.02-5.29,1.5-8.03,1.86c-2.1,0.28-4.22,0.4-6.33,0.54c-1.37,0.09-2.74-0.01-4.1,0.14   C264.38,288.92,264.09,288.96,263.84,288.77z"/>
	<path class="st1" d="M260.15,267.9c-0.63-2.14-1.27-4.29-1.91-6.42c-0.08-0.25-0.02-0.35,0.24-0.41c2.93-0.69,5.85-0.69,8.78,0   c0.26,0.06,0.32,0.15,0.24,0.41c-0.64,2.14-1.27,4.28-1.91,6.42C263.78,268.15,261.97,268.15,260.15,267.9z"/>
	<path class="st5" d="M264.65,276.56c0.42-1.44,0.84-2.87,1.26-4.31c0.99-3.39,2-6.78,2.98-10.17c0.12-0.41,0.25-0.47,0.64-0.3   c0.91,0.38,1.8,0.78,2.67,1.24c0.21,0.11,0.32,0.26,0.37,0.49c0.16,0.78,0.33,1.57,0.51,2.35c0.07,0.3,0.01,0.41-0.32,0.4   c-0.95-0.02-1.9-0.01-2.86-0.01c-0.89,0-1.18,0.44-0.84,1.25c0.34,0.81,0.69,1.63,1.05,2.43c0.1,0.22,0.08,0.35-0.07,0.53   c-1.77,2.04-3.54,4.09-5.31,6.13C264.71,276.58,264.68,276.57,264.65,276.56z"/>
	<path class="st5" d="M261.02,276.6c-0.98-1.13-1.96-2.26-2.94-3.39c-0.78-0.9-1.54-1.8-2.33-2.69c-0.19-0.21-0.24-0.38-0.11-0.66   c0.37-0.8,0.71-1.62,1.06-2.43c0.3-0.72,0-1.19-0.78-1.19c-0.97-0.01-1.94-0.01-2.91,0c-0.33,0.01-0.45-0.06-0.36-0.41   c0.19-0.78,0.35-1.56,0.51-2.35c0.05-0.23,0.17-0.37,0.38-0.48c0.88-0.47,1.79-0.88,2.72-1.25c0.36-0.15,0.47-0.07,0.58,0.29   c1.26,4.34,2.54,8.67,3.81,13.01c0.15,0.51,0.29,1.02,0.44,1.53C261.07,276.58,261.05,276.59,261.02,276.6z"/>
	<path class="st6" d="M238.89,283.51c0.41,0.88,1.2,1.36,1.99,1.81c2.08,1.19,4.37,1.78,6.7,2.22c2.09,0.4,4.2,0.66,6.32,0.82   c2.04,0.15,4.08,0.29,6.13,0.29c0.61,0,1.23,0.06,1.84,0.1c0.06,0.21,0.05,0.37-0.24,0.33c-0.07-0.01-0.13,0-0.2,0   c-7.74,0-15.49,0-23.23,0.01c-0.49,0-0.57-0.14-0.48-0.58C238.06,286.83,238.36,285.14,238.89,283.51z"/>
	<path class="st6" d="M263.84,288.77c0.98-0.06,1.96-0.11,2.94-0.13c2.41-0.06,4.81-0.2,7.21-0.48c2.73-0.32,5.43-0.74,8.05-1.61   c1.59-0.53,3.11-1.19,4.36-2.35c0.21-0.2,0.38-0.42,0.46-0.7c0.55,1.72,0.88,3.49,1.19,5.26c0.04,0.24-0.01,0.35-0.27,0.32   c-0.1-0.01-0.2,0-0.3,0c-7.72,0-15.43,0-23.15,0C264.12,289.08,263.78,289.22,263.84,288.77z"/>
	<path class="st7" d="M260.15,267.9c0.04-0.21,0.17-0.18,0.34-0.16c1.59,0.22,3.18,0.22,4.77,0c0.17-0.02,0.3-0.06,0.34,0.16   c-0.89,3.05-1.77,6.1-2.66,9.15c-0.04,0-0.08,0.01-0.11,0.01C261.93,274.01,261.04,270.96,260.15,267.9z"/>
	<path class="st6" d="M260.28,278.11c-0.64-0.18-1.11-0.66-1.65-1c-1.58-0.99-3.12-2.03-4.68-3.05c-0.5-0.33-0.99-0.67-1.49-0.99   c-0.22-0.14-0.3-0.29-0.2-0.57c0.32-0.91,0.6-1.83,0.92-2.75c0.13-0.37,0.1-0.6-0.33-0.71c-0.43-0.11-0.86-0.27-1.29-0.38   c-0.4-0.1-0.6-0.26-0.33-0.67c0.05-0.08,0.08-0.18,0.11-0.28c1.05,0.01,2.1,0.04,3.15,0.03c0.37,0,0.43,0.08,0.27,0.41   c-0.26,0.54-0.46,1.11-0.72,1.65c-0.24,0.49-0.17,0.85,0.19,1.27c1.96,2.23,3.89,4.49,5.83,6.74   C260.13,277.89,260.2,278.01,260.28,278.11z"/>
	<path class="st6" d="M274.41,267.7c0.31,0.77,0.31,0.77-0.46,1.02c-0.35,0.11-0.7,0.23-1.05,0.32c-0.39,0.1-0.46,0.31-0.34,0.67   c0.32,0.93,0.62,1.87,0.93,2.8c0.07,0.21,0.12,0.37-0.14,0.54c-1.85,1.19-3.68,2.4-5.52,3.61c-0.63,0.41-1.25,0.83-1.87,1.25   c-0.15,0.1-0.3,0.21-0.5,0.22c1.18-1.38,2.35-2.77,3.54-4.14c0.85-0.99,1.69-1.98,2.56-2.95c0.33-0.37,0.4-0.73,0.17-1.18   c-0.28-0.57-0.49-1.17-0.76-1.74c-0.14-0.29-0.08-0.37,0.24-0.36C272.27,267.74,273.34,267.72,274.41,267.7z"/>
	<path class="st8" d="M274.94,234.21c0.72,1.18,1.14,2.48,1.45,3.81c0.05,0.21-0.05,0.35-0.15,0.5c-0.96,1.34-2.1,2.51-3.39,3.52   c-0.2,0.16-0.32,0.13-0.51-0.01c-0.48-0.36-1.05-0.5-1.65-0.5c-5.21,0-10.42,0-15.62,0c-0.6,0-1.17,0.13-1.64,0.5   c-0.22,0.17-0.35,0.14-0.55-0.02c-1.27-1-2.38-2.14-3.33-3.45c-0.16-0.22-0.21-0.42-0.15-0.69c0.31-1.29,0.72-2.53,1.41-3.67   c0.62-0.67,1.44-1.07,2.17-1.59c1.01-0.73,2.07-1.4,3.11-2.11c0.38-0.26,0.79-0.31,1.24-0.23c1.92,0.35,3.87,0.56,5.82,0.53   c1.75-0.02,3.5-0.19,5.22-0.52c0.51-0.1,0.95-0.01,1.37,0.28c1.52,1.03,3.03,2.07,4.56,3.09   C274.54,233.82,274.73,234.03,274.94,234.21z"/>
	<path class="st9" d="M253.84,243.92c0.25-0.66,0.59-0.88,1.39-0.88c3.37,0,6.75,0,10.12,0c1.75,0,3.51,0,5.26,0   c0.7,0,1.06,0.25,1.29,0.88c0.1,0.86,0.03,1.73,0.04,2.6c0.01,0.82,0,1.64,0.01,2.46c0,0.24-0.02,0.47-0.23,0.63   c-0.52,0.4-1.02,0.81-1.63,1.07c-0.18,0.08-0.4,0.23-0.57-0.04c-0.11-0.85-0.26-1-1.16-1c-3.66-0.01-7.32-0.01-10.98,0   c-0.02,0-0.04,0-0.05,0c-0.86,0.02-1.02,0.17-1.11,0.99c-0.14,0.26-0.34,0.15-0.52,0.08c-0.64-0.26-1.17-0.7-1.71-1.12   c-0.12-0.09-0.2-0.23-0.2-0.39C253.82,247.44,253.75,245.68,253.84,243.92z"/>
	<path class="st10" d="M274.94,234.21c-1-0.51-1.87-1.21-2.8-1.82c-0.88-0.58-1.74-1.18-2.61-1.77c-0.29-0.2-0.6-0.28-0.95-0.2   c-2.15,0.44-4.32,0.62-6.51,0.55c-1.63-0.05-3.26-0.19-4.86-0.54c-0.43-0.1-0.77,0.04-1.12,0.28c-1.68,1.15-3.37,2.29-5.06,3.42   c-0.07,0.04-0.15,0.06-0.23,0.09c1.08-2.08,2.65-3.71,4.61-4.97c6.6-4.25,15.41-2.13,19.37,4.66   C274.85,234,274.89,234.11,274.94,234.21z"/>
	<path class="st1" d="M253.84,243.92c0,1.65,0.01,3.29,0,4.94c0,0.25,0.03,0.45,0.26,0.6c0.59,0.4,1.14,0.87,1.79,1.16   c0.08,0.04,0.17,0.13,0.27,0.03c4.47,0.17,8.95,0.17,13.42,0c0.41,0.02,0.7-0.25,1-0.45c1.32-0.85,1.31-0.86,1.31-2.39   c0-1.3,0-2.59,0-3.89c0.13,0.18,0.09,0.39,0.09,0.58c0,2.1-0.01,4.21-0.01,6.31c0,0.28-0.09,0.45-0.3,0.63   c-5.01,4.23-12.61,4.23-17.63,0c-0.17-0.14-0.3-0.27-0.3-0.53c0.01-2.21,0-4.41-0.01-6.62   C253.75,244.17,253.75,244.03,253.84,243.92z"/>
	<path class="st8" d="M249.35,243.42c-0.25-0.93-0.24-1.87-0.28-2.82c0.22-0.03,0.26,0.14,0.33,0.22c0.77,0.87,1.59,1.67,2.52,2.36   c0.31,0.23,0.41,0.44,0.38,0.85c-0.08,0.98-0.03,1.97-0.03,2.95c0,0.25-0.01,0.5-0.02,0.75c-0.32,0.06-0.44-0.19-0.59-0.37   C250.67,246.17,249.81,244.91,249.35,243.42z"/>
	<path class="st8" d="M273.51,247.74c-0.01-1.14,0.06-2.28-0.05-3.4c-0.07-0.69,0.17-1.04,0.68-1.41c0.91-0.67,1.69-1.5,2.52-2.46   c0.01,1.07-0.03,2.02-0.26,2.96c-0.47,1.49-1.32,2.75-2.3,3.94C273.94,247.55,273.82,247.8,273.51,247.74z"/>
	<path class="st7" d="M273.51,247.74c0.95-0.86,1.59-1.96,2.22-3.05c0.24-0.41,0.36-0.89,0.67-1.27c-0.39,2.29-1.38,4.29-2.89,6.2   C273.51,248.91,273.51,248.32,273.51,247.74z"/>
	<path class="st7" d="M249.35,243.42c0.35,0.64,0.67,1.29,1.05,1.91c0.52,0.87,1.06,1.73,1.84,2.4c0,0.58,0,1.16,0,1.88   C250.73,247.72,249.74,245.72,249.35,243.42z"/>
	<path class="st4" d="M263.84,284.67c-0.01,0.52-0.45,0.95-0.97,0.95c-0.53,0-0.99-0.47-0.96-1.01c0.02-0.53,0.46-0.93,0.99-0.92   C263.43,283.71,263.85,284.15,263.84,284.67z"/>
	<path class="st4" d="M262.92,245.38c1.87,0,3.74,0,5.61,0c0.18,0,0.37-0.01,0.55,0.03c0.39,0.09,0.61,0.34,0.59,0.75   c-0.02,0.4-0.24,0.65-0.64,0.71c-0.18,0.03-0.37,0.02-0.55,0.02c-3.79,0-7.59,0-11.38,0c-0.13,0-0.27,0.01-0.4-0.01   c-0.39-0.07-0.63-0.31-0.64-0.72c-0.01-0.41,0.2-0.66,0.6-0.75c0.18-0.04,0.37-0.03,0.55-0.03   C259.11,245.37,261.02,245.38,262.92,245.38z"/>
	<path class="st4" d="M269.59,250.65c-0.23,0.26-0.51,0.33-0.85,0.33c-3.91-0.01-7.82-0.01-11.72,0c-0.34,0-0.62-0.07-0.85-0.33   c-0.23-0.73,0.05-1.17,0.8-1.17c3.94-0.01,7.89-0.01,11.83,0C269.54,249.48,269.82,249.92,269.59,250.65z"/>
	<path class="st9" d="M268.86,251.07c-3.99,1.8-7.99,1.8-11.98,0C260.88,251.07,264.87,251.07,268.86,251.07z"/>
</g>
</svg>